<svg id="Layer_1" data-name="Layer 1" xmlns="http://www.w3.org/2000/svg" xmlns:xlink="http://www.w3.org/1999/xlink" viewBox="0 0 491.72 605.57"><defs><style>.cls-1{fill:none;}.cls-13,.cls-2{fill:#e6e6e6;}.cls-14,.cls-3{fill:#090814;}.cls-4{fill:#fafafa;}.cls-5{clip-path:url(#clip-path);}.cls-6{fill:#ffb8b8;}.cls-7{fill:#fff;}.cls-8{fill:#f2f2f2;}.cls-9{fill:#ccc;}.cls-10{fill:#ed9da0;}.cls-11,.cls-12{fill:#dedede;}.cls-12,.cls-13{stroke:#000;stroke-miterlimit:10;}.cls-14{isolation:isolate;opacity:0.05;}</style><clipPath id="clip-path" transform="translate(564 -6.3)"><rect class="cls-1" x="-200.07" y="39.22" width="110.63" height="76.45" transform="matrix(0.77, -0.64, 0.64, 0.77, -83.65, -74.93)"/></clipPath></defs><path class="cls-2" d="M-211.23,604.52h-352.2c-.31,0-.57-.82-.57-1.82s.26-1.82.57-1.82h352.2c.31,0,.57.81.57,1.82S-210.92,604.52-211.23,604.52Z" transform="translate(564 -6.3)"/><path class="cls-3" d="M-218,83.26l91.71-77,54,64.39-91.71,77Z" transform="translate(564 -6.3)"/><path class="cls-4" d="M-211.7,83.72l84.75-71.11,49.08,58.5-84.74,71.11Z" transform="translate(564 -6.3)"/><g class="cls-5"><path class="cls-2" d="M-108.91,97.27l-53.45,44.85a1,1,0,0,1-.21.15l-11.1-64.57A2.32,2.32,0,0,1-171.79,75a2.45,2.45,0,0,1,1.2.1L-129.21,90l2,.71Z" transform="translate(564 -6.3)"/><path class="cls-2" d="M-79.15,72.3l-46.23,38.79-1.85-20.4-.14-1.47-2.41-26.59a3.09,3.09,0,0,1,3-3.15h.29a2,2,0,0,1,.34.06Z" transform="translate(564 -6.3)"/><path class="cls-6" d="M-96.47,117.33c-.78.93-.34,1.12-.34,1.12l.78.33-4-3.31,1.7-1.5,3.5,3.15C-95.27,117.19-96.07,116.85-96.47,117.33Z" transform="translate(564 -6.3)"/><path class="cls-3" d="M-97.35,118.62l.27-.5s-.44-.19.33-1.12a2.11,2.11,0,0,1,1.29-.73l1.85,1.53s3.64,1.14,1.65,2.81-2.55,1.16-2.55,1.16l-.55-.66s-.29.66-.93.08a7.92,7.92,0,0,1-1.22-2.47Z" transform="translate(564 -6.3)"/><path class="cls-6" d="M-108.32,127.27c1-.6,1.16-.13,1.16-.13l.19.82-2.22-4.16-2.11,1,2.49,4C-108.67,128.43-108.87,127.58-108.32,127.27Z" transform="translate(564 -6.3)"/><ellipse class="cls-6" cx="-135.58" cy="77.79" rx="3.3" ry="3.27" transform="translate(482.27 -75.25) rotate(-40)"/><path class="cls-6" d="M-135.22,80.57s1.93,1.46,1,3.37,5.58-3.28,5.58-3.28-3-.41-4.12-2.56Z" transform="translate(564 -6.3)"/><path class="cls-3" d="M-134,83.19l-2.68,3.37,4.8,4.22s2.86,1.38,3,2.77,1.2,1.09,1.2,1.09l7.8-5.85s.49-1.1,0-1.38a34.07,34.07,0,0,1-3-3.53,10.76,10.76,0,0,1-.93-1.53l-2.83-3.29-2.52,1.49S-130,82.07-134,83.19Z" transform="translate(564 -6.3)"/><path class="cls-4" d="M-127.87,94.39l10.32,20.7,4.75,10.55,6.84-2.79s-7.52-19.56-10.54-22.48l15.26,18.51,5.53-5.19s-18.91-25.38-24.56-25.39Z" transform="translate(564 -6.3)"/><path class="cls-6" d="M-135.72,90.92l2.69,6.4a1.83,1.83,0,0,0,1.06.93c.66.24,5.33,1.51,7.09,2a.49.49,0,0,0,.59-.35.81.81,0,0,0,0-.16l-.2-2.31s1.48-.26,1.52-.72c0-.17-.34-.19-.78-.14a5.86,5.86,0,0,0-2.81,1.06h0l-4.29-1.58-1.84-5.72Z" transform="translate(564 -6.3)"/><path class="cls-3" d="M-135.83,86.25l-.56-.07-.3.38a2.81,2.81,0,0,0,0,2.37c.54,1.49,1.35,5.15,1.35,5.15l3.73-.61-1.25-4.68Z" transform="translate(564 -6.3)"/><path class="cls-6" d="M-122.29,80.42l5.86,3.54a1.78,1.78,0,0,1,.73,1.2c.12.69.56,5.51.73,7.32a.48.48,0,0,1-.45.52.43.43,0,0,1-.16,0l-2.24-.6s-.52,1.41-1,1.37c-.17,0-.13-.36,0-.79a5.91,5.91,0,0,1,1.53-2.58h0l-.8-4.5-5.32-2.8Z" transform="translate(564 -6.3)"/><path class="cls-3" d="M-126.89,79.73l0-.57.44-.23a2.84,2.84,0,0,1,2.33.42,50.14,50.14,0,0,0,5,2.17l-1.59,3.15-4-1.93Z" transform="translate(564 -6.3)"/><path class="cls-3" d="M-138.29,74.61s-3,1.71-1.52,4.4a15.93,15.93,0,0,0,1.14,1.79,11.84,11.84,0,0,1,2.11,4.7h0l5.16-2.3s-2.57-.81-3-1.7a1.91,1.91,0,0,0-.47-.55A2.86,2.86,0,0,1-138,79.13a2.91,2.91,0,0,1,1.7-3.74,2.89,2.89,0,0,1,3.06.66,2.86,2.86,0,0,1,.37,3.6,2.32,2.32,0,0,0,1.53,1.94,10.59,10.59,0,0,0,3.23.09s-2.3-1.81-2.64-3.71S-135.36,72.47-138.29,74.61Z" transform="translate(564 -6.3)"/><path class="cls-3" d="M-133.52,75.62l-4.13,3.89-1.81-1.91,3.66-3.31Z" transform="translate(564 -6.3)"/><path class="cls-3" d="M-106.9,126.63l-.54.18s-.11-.47-1.16.13a2.15,2.15,0,0,0-.94,1.14l1.18,2.09s.49,3.78,2.48,2.11,1.59-2.3,1.59-2.3l-.55-.66s.7-.17.23-.9a7.91,7.91,0,0,0-2.22-1.63Z" transform="translate(564 -6.3)"/></g><path class="cls-3" d="M-188.07,49.59l-3.23,0-39.87.32-3.23,0a5.93,5.93,0,0,0-5.88,6l.43,54.41a5.93,5.93,0,0,0,6,5.87h0l46.32-.38h0a5.92,5.92,0,0,0,5.88-6l-.43-54.41A5.94,5.94,0,0,0-188.07,49.59Z" transform="translate(564 -6.3)"/><path class="cls-7" d="M-188,51.3l-3.84,0-38.67.31-3.83,0a4.23,4.23,0,0,0-4.19,4.25l.44,54.41a4.23,4.23,0,0,0,4.25,4.19h0l46.32-.37h0a4.23,4.23,0,0,0,4.19-4.25l-.44-54.42A4.21,4.21,0,0,0-188,51.3Z" transform="translate(564 -6.3)"/><path class="cls-8" d="M-194.9,67.17l-23.43.19a1,1,0,0,1-1-1,1,1,0,0,1,1-1l23.43-.19a1,1,0,0,1,1,1,1,1,0,0,1-1,1Z" transform="translate(564 -6.3)"/><path class="cls-8" d="M-190.8,70.47l-27.51.22a1,1,0,0,1-1-1,1,1,0,0,1,1-1h0l27.5-.22a1,1,0,0,1,1,1A1,1,0,0,1-190.8,70.47Z" transform="translate(564 -6.3)"/><path class="cls-8" d="M-194.78,82.1l-23.43.19a1,1,0,0,1-1-1,1,1,0,0,1,1-1l23.43-.18a1,1,0,0,1,1,1,1,1,0,0,1-1,1Z" transform="translate(564 -6.3)"/><path class="cls-8" d="M-190.68,85.4l-27.51.22a1,1,0,0,1-1-1,1,1,0,0,1,1-1l27.5-.22a1,1,0,0,1,1,1,1,1,0,0,1-1,1Z" transform="translate(564 -6.3)"/><path class="cls-8" d="M-194.66,97l-23.43.19a1,1,0,0,1-1-1,1,1,0,0,1,1-1h0l23.43-.19a1,1,0,0,1,1,1,1,1,0,0,1-1,1Z" transform="translate(564 -6.3)"/><path class="cls-8" d="M-190.56,100.32l-27.51.22a1,1,0,0,1-1-1,1,1,0,0,1,1-1h0l27.5-.22a1,1,0,0,1,1,1A1,1,0,0,1-190.56,100.32Z" transform="translate(564 -6.3)"/><path class="cls-2" d="M-223.54,72.24l-8.29.07a.47.47,0,0,1-.48-.47l-.06-7.38a.48.48,0,0,1,.47-.48l8.29-.06a.48.48,0,0,1,.48.47l0,7.37A.46.46,0,0,1-223.54,72.24Z" transform="translate(564 -6.3)"/><path class="cls-2" d="M-223.42,87.17l-8.29.07a.47.47,0,0,1-.48-.47l-.06-7.38a.48.48,0,0,1,.47-.48l8.29-.07a.48.48,0,0,1,.48.47l0,7.38A.46.46,0,0,1-223.42,87.17Z" transform="translate(564 -6.3)"/><path class="cls-2" d="M-223.3,102.1l-8.29.06a.47.47,0,0,1-.48-.47l-.06-7.38a.47.47,0,0,1,.47-.47l8.29-.07a.48.48,0,0,1,.48.47l0,7.38A.47.47,0,0,1-223.3,102.1Z" transform="translate(564 -6.3)"/><path class="cls-3" d="M-160.93,70.12l-45-11.21a5.93,5.93,0,0,0-7.19,4.32L-226.24,116a5.92,5.92,0,0,0,4.31,7.18l45,11.22a5.94,5.94,0,0,0,7.18-4.32l13.16-52.8A5.93,5.93,0,0,0-160.93,70.12Z" transform="translate(564 -6.3)"/><path class="cls-7" d="M-161.34,71.77l-45-11.21a4.22,4.22,0,0,0-5.11,3.08l-13.17,52.79a4.24,4.24,0,0,0,3.08,5.12l45,11.21a4.23,4.23,0,0,0,5.12-3.07l13.16-52.8A4.23,4.23,0,0,0-161.34,71.77Z" transform="translate(564 -6.3)"/><path class="cls-2" d="M-175.34,99.1l-22.74-5.67a1,1,0,0,1-.72-1.2,1,1,0,0,1,1.2-.71l22.73,5.66a1,1,0,0,1,.72,1.2A1,1,0,0,1-175.34,99.1Z" transform="translate(564 -6.3)"/><path class="cls-2" d="M-172.2,103.32l-26.69-6.66a1,1,0,0,1-.72-1.19,1,1,0,0,1,1.2-.72l26.68,6.65a1,1,0,0,1,.72,1.2,1,1,0,0,1-1.19.71h0Z" transform="translate(564 -6.3)"/><path class="cls-2" d="M-179,113.58l-22.73-5.67a1,1,0,0,1-.72-1.19,1,1,0,0,1,1.19-.72l22.74,5.67a1,1,0,0,1,.72,1.19A1,1,0,0,1-179,113.58Z" transform="translate(564 -6.3)"/><path class="cls-2" d="M-175.81,117.8l-26.69-6.66a1,1,0,0,1-.72-1.19,1,1,0,0,1,1.2-.72l26.68,6.65a1,1,0,0,1,.72,1.2,1,1,0,0,1-1.2.72h0Z" transform="translate(564 -6.3)"/><path class="cls-2" d="M-204.35,96.86l-8-2a.47.47,0,0,1-.35-.57l1.79-7.16a.47.47,0,0,1,.57-.35l8,2a.47.47,0,0,1,.34.57l-1.78,7.16A.48.48,0,0,1-204.35,96.86Z" transform="translate(564 -6.3)"/><path class="cls-2" d="M-208,111.34l-8-2a.48.48,0,0,1-.35-.58l1.79-7.16a.48.48,0,0,1,.57-.35l8.05,2a.47.47,0,0,1,.34.57l-1.78,7.17A.48.48,0,0,1-208,111.34Z" transform="translate(564 -6.3)"/><path class="cls-9" d="M-171.3,83l-16.76-4.18a1,1,0,0,1-.72-1.19,1,1,0,0,1,1.19-.72l16.77,4.18a1,1,0,0,1,.72,1.19A1,1,0,0,1-171.3,83Z" transform="translate(564 -6.3)"/><path class="cls-9" d="M-168.16,87.2-188.87,82a1,1,0,0,1-.72-1.2,1,1,0,0,1,1.2-.72l20.71,5.16a1,1,0,0,1,.72,1.2,1,1,0,0,1-1.2.72Z" transform="translate(564 -6.3)"/><path class="cls-3" d="M-193.56,85-209,81.17a.46.46,0,0,1-.34-.57h0l3-12.06a.49.49,0,0,1,.58-.35l15.45,3.86a.46.46,0,0,1,.34.57l-3,12.06a.48.48,0,0,1-.57.35Z" transform="translate(564 -6.3)"/><path class="cls-10" d="M-275.31,184.22A25.19,25.19,0,0,1-286.92,187l-14.52,6.89-42.07,21.78L-367.12,219l-2.35-18.73,58.22-22.63,16.43-6.8a25.19,25.19,0,0,1,9.28-7.51c9.06-4.44,18.69-3.37,21.52,2.4s-2.23,14-11.29,18.48Z" transform="translate(564 -6.3)"/><path class="cls-11" d="M-457.52,146.24l30.87-22.42,62.91,65.73L-307.1,173l11,22.23c.38.76-67.91,42.07-70.94,40.71S-457.52,146.24-457.52,146.24Z" transform="translate(564 -6.3)"/><rect class="cls-10" x="137.08" y="80.36" width="29.04" height="56.36"/><path class="cls-3" d="M-349.94,243.72l-70-5.12s-29,66.61-6.84,109.31l15.38,88.81-6.08,146.19h31.81l49.42-235Z" transform="translate(564 -6.3)"/><path class="cls-3" d="M-363.61,318.33l27.33,23.78-13.66,233h-30.75Z" transform="translate(564 -6.3)"/><path class="cls-10" d="M-376.49,61.44a36.3,36.3,0,0,1-36.3,36.3,36.3,36.3,0,0,1-36.3-36.3,36.3,36.3,0,0,1,36.3-36.3h0A36.3,36.3,0,0,1-376.49,61.44Z" transform="translate(564 -6.3)"/><path class="cls-3" d="M-417.14,548.22l37.5,5.92,7.05,26.9s30.45,11.46,15.78,23.91S-425.68,611-430,602-417.14,548.22-417.14,548.22Z" transform="translate(564 -6.3)"/><path class="cls-3" d="M-386.39,548.22l37.5,5.92,7,26.9S-311.4,592.5-326.07,605s-68.87,6-73.15-2.92,12.83-53.81,12.83-53.81Z" transform="translate(564 -6.3)"/><path class="cls-11" d="M-395.21,107.94h-35.93L-443,143.8l23,94.8,70,5.12-4.27-38.43h0A38.91,38.91,0,0,0-355.89,162l-39.32-54.06Z" transform="translate(564 -6.3)"/><path class="cls-3" d="M-394.66,40.39c4.46,7.24.34,16.77-5.15,23.25s-12.58,12.18-15,20.31c-2.2,7.3-.2,15.17,2.39,22.34s5.8,14.31,6.07,21.92-3.34,16-10.51,18.6c-7.36,2.64-16.07-1.5-23.16,1.79-9.23,4.3-11.32,19.17-21.39,20.71-6.2.95-11.94-4.42-13.67-10.44s-.49-12.46.76-18.6l10.29-50.48,8.56-42c1.7-8.36,3.73-17.3,10-23.08,7.68-7,19.25-7.22,29.67-6.8,9.57.39,19.52,1.05,27.85,5.77s14.46,14.77,11.57,23.9a14.41,14.41,0,0,0-17.33-7.77" transform="translate(564 -6.3)"/><path class="cls-12" d="M-270,100.59l-.38-.44c-.12-.14-11.67-13.62-11.63-30s11.64-29.79,11.76-29.93l.38-.44.38.44c.12.14,11.67,13.63,11.63,30s-11.64,29.8-11.76,29.93Zm11.09-31.93c-.72-13.75-21.4-13.76-22.05,0,0,.5,0,1,0,1.52,0,14.28,9,26.36,11,28.84,2-2.47,11.09-14.51,11.13-28.79h0c0-.52,0-1,0-1.56Z" transform="translate(564 -6.3)"/><path class="cls-12" d="M-269.87,100.32l-.57.12c-.18,0-17.58,3.57-31.86-4.41s-20.37-24.66-20.42-24.83l-.2-.55.57-.12c.17,0,17.58-3.57,31.85,4.41s20.37,24.66,20.43,24.83Zm-31.93-5.18c12.47,7,27.42,4.94,30.55,4.41-1.19-3-7.28-16.74-19.75-23.72h0q-.67-.37-1.35-.72c-12.3-6.18-22.42,11.86-10.79,19.22.44.28.89.55,1.34.81Z" transform="translate(564 -6.3)"/><path class="cls-12" d="M-265.35,68.57c-8.36,14.06-5.2,31.37-5.2,31.37s16.72-5.47,25.09-19.53S-240.25,49-240.25,49-257,54.52-265.35,68.57Z" transform="translate(564 -6.3)"/><path class="cls-10" d="M-273.48,243.07a25.28,25.28,0,0,1-11.61-2.69l-16.06-.24-47.33.92-22.67-7.4,6.18-17.82,62.19,5.45,17.74,1.16a25.2,25.2,0,0,1,11.63-2.62c10.09,0,18.25,5.25,18.23,11.66s-8.2,11.6-18.3,11.58Z" transform="translate(564 -6.3)"/><path class="cls-11" d="M-417.38,128.43-379.8,122l27.32,86.73L-294.4,219v24.76c0,.86-79.48,7.69-81.59,5.13S-417.38,128.43-417.38,128.43Z" transform="translate(564 -6.3)"/><path class="cls-3" d="M-295.94,80.29c8.22,14.15,24.88,19.8,24.88,19.8s3.34-17.27-4.87-31.42-24.88-19.8-24.88-19.8S-304.15,66.14-295.94,80.29Z" transform="translate(564 -6.3)"/><path class="cls-13" d="M-285,100.57-256.83,93a13.17,13.17,0,0,1,16.12,9.31h0c1.89,7,4.74,33.58-2.29,35.46L-277.28,148c-7,1.88-15.15-24.23-17-31.25h0A13.16,13.16,0,0,1-285,100.57Z" transform="translate(564 -6.3)"/><path class="cls-3" d="M-126.12,140.17l4.08-10.89.15-.08L-89,110.4a3.93,3.93,0,0,1,5.34,1.48,3.93,3.93,0,0,1-1.48,5.34Z" transform="translate(564 -6.3)"/><path class="cls-3" d="M-293.3,140.17l-41-22.95a3.91,3.91,0,0,1-1.48-5.33,3.92,3.92,0,0,1,5.34-1.49l33,18.88Z" transform="translate(564 -6.3)"/><path class="cls-3" d="M-124.91,141.52H-293.14l-14.16-31.63h196.53Z" transform="translate(564 -6.3)"/><path class="cls-14" d="M-124.91,141.52H-293.14l-14.16-31.63h196.53Z" transform="translate(564 -6.3)"/><path class="cls-3" d="M-296.7,139v99.58c0,2.83,3.15,5.13,7,5.13h160.79c3.88,0,7-2.3,7-5.13V139Z" transform="translate(564 -6.3)"/></svg>