<svg xmlns="http://www.w3.org/2000/svg" viewBox="0 0 16 16"><defs><style>.cls-1{fill:#fff;}.cls-2{fill:#231f20;}</style></defs><g id="Layer_2" data-name="Layer 2"><g id="Layer_1-2" data-name="Layer 1"><rect class="cls-1" width="16" height="16" rx="2.7"/><path d="M13.42,6.53a1,1,0,0,0-1.16-.83.15.15,0,0,1-.16-.08c-.2-.27-.4-.54-.63-.8a4.16,4.16,0,0,0-2.23-1.3,5.64,5.64,0,0,0-2.35,0,4.22,4.22,0,0,0-2,1,5.69,5.69,0,0,0-1,1.16.15.15,0,0,1-.16.07,1,1,0,0,0-.56.08A1,1,0,0,0,2.61,7a1,1,0,0,0,.74.58.18.18,0,0,1,.14.1c.23.4.47.79.69,1.2a.33.33,0,0,0,.37.21.15.15,0,0,1,.09.07c.07.14.13.29.19.43A.2.2,0,0,0,5,9.72h5.82a.2.2,0,0,0,.19-.12l.3-.52h.17a.29.29,0,0,0,.31-.17c.23-.42.48-.84.72-1.25a.19.19,0,0,1,.11-.09,1,1,0,0,0,.78-.74V6.55ZM12.18,7.69c-.2.34-.4.67-.59,1a.13.13,0,0,1-.13.08h-.87a.14.14,0,0,0-.14.15.15.15,0,0,0,.14.15H11l-.18.3s-.08,0-.12,0H5.2a.13.13,0,0,1-.15-.09A1.54,1.54,0,0,0,5,9.08H9.38q.15,0,.15-.15a.14.14,0,0,0-.14-.15H4.6a.17.17,0,0,1-.17-.1l-.56-1-.06-.1.39-.05a2.28,2.28,0,0,0,.94-.38s.07-.06.12,0a1.74,1.74,0,0,0,1.2.43A2.27,2.27,0,0,0,8,7.19s.08,0,.12,0a2.37,2.37,0,0,0,2.19.26,3.87,3.87,0,0,0,.47-.28s.08,0,.1,0a2.51,2.51,0,0,0,1.32.44h.06Zm.61-.5a5,5,0,0,1-.52.14v0a2.23,2.23,0,0,1-1.38-.49c-.09-.07-.18-.08-.23,0a1.26,1.26,0,0,1-.93.47,2.14,2.14,0,0,1-1.27-.2,1.86,1.86,0,0,1-.32-.23c-.08-.06-.15-.09-.23,0a1.87,1.87,0,0,1-1.43.47A1.55,1.55,0,0,1,5.56,7a1.53,1.53,0,0,1-.18-.18.16.16,0,0,0-.26,0,2.2,2.2,0,0,1-1.52.48.83.83,0,0,1-.54-.19A.56.56,0,0,1,3,6.37.72.72,0,0,1,3.75,6a.32.32,0,0,0,.36-.15A6.09,6.09,0,0,1,5,4.78a3.89,3.89,0,0,1,2-1,5.24,5.24,0,0,1,2.52.11,3.82,3.82,0,0,1,2,1.37c.17.21.33.43.49.66a.19.19,0,0,0,.23.09.74.74,0,0,1,.86.35A.53.53,0,0,1,12.79,7.19Z"/><path d="M6.68,4.39a.32.32,0,0,0-.34,0l-.13.1a2.16,2.16,0,0,0-.57.88,2.14,2.14,0,0,0-.08.44A.28.28,0,0,0,6,6.11l.11-.06a1.91,1.91,0,0,0,.54-.69,1.65,1.65,0,0,0,.2-.64A.34.34,0,0,0,6.68,4.39Zm-.8,1.42A1.72,1.72,0,0,1,6.5,4.7,1.64,1.64,0,0,1,5.88,5.81Z"/><path d="M8.22,4.38a.27.27,0,0,0-.44,0,1,1,0,0,0-.12.23,2.19,2.19,0,0,0-.07,1,1,1,0,0,0,.19.5.26.26,0,0,0,.43,0A.57.57,0,0,0,8.29,6a1.75,1.75,0,0,0,.15-.76c0-.09,0-.2,0-.3A1.09,1.09,0,0,0,8.22,4.38ZM8,5.89A1.82,1.82,0,0,1,8,4.61,1.54,1.54,0,0,1,8,5.89Z"/><path d="M9.64,4.44a.3.3,0,0,0-.34-.05.32.32,0,0,0-.15.32,1.57,1.57,0,0,0,.23.73,1.7,1.7,0,0,0,.55.64.32.32,0,0,0,.34,0,.35.35,0,0,0,.15-.31,1.66,1.66,0,0,0-.24-.72A1.7,1.7,0,0,0,9.64,4.44Zm-.17.24a2,2,0,0,1,.65,1.14A1.63,1.63,0,0,1,9.47,4.68Z"/><path class="cls-2" d="M4.58,11.74a.55.55,0,0,1,.2-.2.58.58,0,0,1,.3-.07.56.56,0,0,1,.35.11.53.53,0,0,1,.19.31H5.28a.27.27,0,0,0-.08-.1.28.28,0,0,0-.13,0,.21.21,0,0,0-.17.07.31.31,0,0,0-.07.21.28.28,0,0,0,.07.21.21.21,0,0,0,.17.08.28.28,0,0,0,.13,0,.39.39,0,0,0,.08-.1h.34a.53.53,0,0,1-.19.31.56.56,0,0,1-.35.11.7.7,0,0,1-.3-.07.51.51,0,0,1-.2-.21.68.68,0,0,1,0-.6Z"/><path class="cls-2" d="M6.08,12.37h.35v.24H5.77V11.48h.31Z"/><path class="cls-2" d="M7.27,12.43h-.4l-.06.18H6.48l.41-1.13h.36l.41,1.13H7.33Zm-.08-.24-.12-.37L7,12.19Z"/><path class="cls-2" d="M8.34,12.61l-.23-.42h0v.42H7.77V11.48h.49a.52.52,0,0,1,.23,0,.32.32,0,0,1,.15.13.34.34,0,0,1,0,.18.32.32,0,0,1-.06.2.35.35,0,0,1-.18.13l.25.44ZM8.08,12h.16a.12.12,0,0,0,.09,0,.12.12,0,0,0,0-.18.12.12,0,0,0-.09,0H8.08Z"/><path class="cls-2" d="M10.15,11.48v1.13H9.83V12l-.21.62H9.36L9.14,12v.63H8.83V11.48h.38l.28.73.28-.73Z"/><path class="cls-2" d="M10.64,11.48v1.13h-.31V11.48Z"/><path class="cls-2" d="M11.14,12.37h.35v.24h-.67V11.48h.32Z"/></g></g></svg>